<svg version="1.1" xmlns="http://www.w3.org/2000/svg" viewBox="-28.110610538376786 -27.139673680151773 54.16061388054891 54.617547649062594" fill="none" stroke="black" stroke-width="0.6%" vector-effect="non-scaling-stroke">
    <path d="M -25.71681 -8.99654 A 15.9 5.98999 180 0 0 -24.93968 -8.42763 L -24.93968 -14.9119" />
    <path d="M -18.20048 -12.55319 A 15.9 5.98999 0 0 1 -24.93968 -14.9119" />
    <path d="M -18.20048 6.89961 L -18.20048 -12.55319 L 4.4732 -16.94889" />
    <path d="M -24.3829 4.87429 A 15.9 5.98999 180 0 0 -18.20048 6.89961 L -5.75568 4.48696" />
    <path d="M -24.3829 4.87429 L -24.3829 -5.31527" />
    <path d="M -26.11329 -6.58203 A 15.9 5.98999 180 0 0 -24.3829 -5.31527" />
    <path d="M -26.11329 3.60753 L -26.11329 -6.58203" />
    <path d="M -27.11061 1.51949 A 15.9 5.98999 180 0 0 -26.11329 3.60753 L -24.3829 2.5948" />
    <path d="M -25.71681 -15.4808 A 15.9 5.98999 0 0 1 -27.11061 -17.93331 A 15.9 5.98999 0 0 1 -26.89442 -18.91773" />
    <path d="M -25.71681 -8.99654 L -25.71681 -15.4808 A 3 1.13019 0 0 1 -25.76983 -15.69235 A 3 1.13019 0 1 1 -19.76983 -15.69235 A 3 1.13019 0 0 1 -24.93968 -14.9119" />
    <path d="M -25.71681 -9.41962 A 3 1.13019 0 0 1 -24.93968 -9.98853" />
    <path d="M 3.29559 -20.38582 A 15.9 5.98999 0 0 1 4.68939 -17.93331 A 15.9 5.98999 0 0 1 4.4732 -16.94889" />
    <path d="M 3.29559 -20.38582 A 3 1.13019 0 0 1 3.34861 -20.17428 A 3 1.13019 0 0 1 -2.65139 -20.17428 A 3 1.13019 0 0 1 2.51846 -20.95473" />
    <path d="M -2.76349 -23.00806 A 15.9 5.98999 0 0 1 2.51846 -20.95473" />
    <path d="M -19.65773 -20.32069 L -26.89442 -18.91773" />
    <path d="M -3.22246 -15.9962 L -11.66958 -14.35857 L -19.65773 -16.29568" />
    <path d="M -2.76349 -19.57094 L -3.22246 -15.9962" />
    <path d="M 4.4732 2.27918 L 4.4732 -16.94889" />
    <path d="M 4.56301 2.27323 A 15.9 5.98999 180 0 0 4.68939 1.51949 L 4.68939 -17.93331" />
    <path d="M 3.29559 -19.96273 L 3.29559 -20.38582" />
    <path d="M 2.51846 -19.39383 L 2.51846 -20.95473" />
    <path d="M -3.22246 -20.62782 L -3.22246 -15.9962" />
    <path d="M -11.66958 -18.99019 L -11.66958 -14.35857" />
    <path d="M -3.22246 -20.62782 L -11.66958 -18.99019 L -19.65773 -20.9273 L -19.65773 -16.29568" />
    <path d="M -2.76349 -24.20256 L -2.76349 -19.57094" />
    <path d="M -2.76349 -24.20256 L -3.22246 -20.62782" />
    <path d="M -10.75164 -26.13967 L -2.76349 -24.20256" />
    <path d="M -19.19876 -24.50204 L -10.75164 -26.13967" />
    <path d="M -19.65773 -20.9273 L -19.19876 -24.50204" />
    <path d="M -7.89318 -20.13635 A 7.25 2.73128 0 0 1 -18.46061 -22.56493 A 7.25 2.73128 0 1 1 -3.96061 -22.56493 A 7.25 2.73128 0 0 1 -7.89318 -20.13635 Z" />
    <path d="M -7.36678 -20.24912 A 7.25 2.73128 180 0 0 -15.05444 -20.24912" />
    <path d="M -9.95 19.88512 A 17.5 6.59275 180 0 0 25.05 19.88512" />
    <path d="M -0.45758 2.90716 A 17.5 6.59275 360 0 1 25.05 8.76924 L 25.05 19.88512" />
    <path d="M 25.05 8.76924 A 17.5 6.59275 360 0 1 -9.95 8.76924 L -9.95 19.88512" />
    <path d="M -9.95 8.76924 A 17.5 6.59275 360 0 1 -0.45758 2.90716" />
    <path d="M 4.87318 3.10433 A 5.85 2.20386 180 0 0 1.7003 5.04154 A 5.85 2.20386 180 1 0 13.3997 5.04154 A 5.85 2.20386 180 0 0 4.87318 3.10433 Z" />
    <path d="M -1.3417 10.49306 A 3 1.13019 180 0 0 -5.38194 10.00527 A 3 1.13019 180 0 0 -7.00922 11.0102 A 3 1.13019 180 0 0 -1.00922 11.0102 A 3 1.13019 180 0 0 -1.3417 10.49306 L 7.06687 12.53212 L 15.95858 10.80831 L 16.44171 7.04542 A 3 1.13019 180 0 0 20.48195 7.5332 A 3 1.13019 180 0 0 22.10922 6.52827 A 3 1.13019 180 0 0 16.10922 6.52827 A 3 1.13019 180 0 0 16.44171 7.04542 L 14.55 6.58668" />
    <path d="M -0.85857 6.73017 L -1.3417 10.49306" />
    <path d="M 0.55 6.45709 L -0.85857 6.73017" />
    <path d="M -1.3417 11.52735 L -1.3417 10.49306" />
    <path d="M -0.85857 10.61022 L -0.85857 6.73017" />
    <path d="M 10.75303 7.40878 A 7 2.6371 360 0 1 0.55 5.06394 L 0.55 10.95179" />
    <path d="M 0.55 5.06394 A 7 2.6371 360 0 1 14.55 5.06394 L 14.55 11.08138" />
    <path d="M 14.55 5.06394 A 7 2.6371 360 0 1 10.75303 7.40878" />
    <path d="M -2.29049 11.93653 A 3 1.13019 180 0 0 -5.38194 11.85792 A 3 1.13019 180 0 0 -5.72794 11.93653" />
    <path d="M 20.82794 7.4546 A 3 1.13019 180 0 0 17.3905 7.4546" />
    <path d="M -27.11061 1.51949 L -27.11061 -17.93331" />
</svg>