<svg version="1.1" xmlns="http://www.w3.org/2000/svg" viewBox="-28.135328178580068 -27.13037284890446 54.201978094766645 54.60014935741583" fill="none" stroke="black" stroke-width="0.6%" vector-effect="non-scaling-stroke">
    <path d="M -25.73413 -8.98294 A 15.9 5.98699 180 0 0 -24.95529 -8.41465 L -24.95529 -14.89945" />
    <path d="M -18.20898 -12.5448 A 15.9 5.98699 0 0 1 -24.95529 -14.89945" />
    <path d="M -18.20898 6.90961 L -18.20898 -12.5448 L 4.45144 -16.948" />
    <path d="M -24.3975 4.88794 A 15.9 5.98699 180 0 0 -18.20898 6.90961 L -9.832 5.28186" />
    <path d="M -24.3975 4.88794 L -24.3975 -5.30246" />
    <path d="M -26.13171 -6.56785 A 15.9 5.98699 180 0 0 -24.3975 -5.30246" />
    <path d="M -26.13171 3.62255 L -26.13171 -6.56785" />
    <path d="M -27.13533 1.52918 A 15.9 5.98699 180 0 0 -26.13171 3.62255 L -24.3975 2.60556" />
    <path d="M -25.73413 -15.46774 A 15.9 5.98699 0 0 1 -27.13533 -17.92522 A 15.9 5.98699 0 0 1 -26.92209 -18.90244" />
    <path d="M -25.73413 -8.98294 L -25.73413 -15.46774 A 3 1.12962 0 0 1 -25.78779 -15.68043 A 3 1.12962 0 1 1 -19.78779 -15.68043 A 3 1.12962 0 0 1 -24.95529 -14.89945" />
    <path d="M -25.73413 -9.40833 A 3 1.12962 0 0 1 -24.95529 -9.97662" />
    <path d="M 3.26347 -20.3827 A 15.9 5.98699 0 0 1 4.66467 -17.92522 A 15.9 5.98699 0 0 1 4.45144 -16.948" />
    <path d="M 3.26347 -20.3827 A 3 1.12962 0 0 1 3.31713 -20.17 A 3 1.12962 0 0 1 -2.68287 -20.17 A 3 1.12962 0 0 1 2.48463 -20.95099" />
    <path d="M -2.79315 -22.9986 A 15.9 5.98699 0 0 1 2.48463 -20.95099" />
    <path d="M -19.67751 -20.31016 L -26.92209 -18.90244" />
    <path d="M -3.24135 -15.99249 L -11.68353 -14.35207 L -19.67751 -16.2848" />
    <path d="M -2.79315 -19.56564 L -3.24135 -15.99249" />
    <path d="M 4.45144 -9.7639 L 4.45144 -16.948" />
    <path d="M 3.26347 -19.95731 L 3.26347 -20.3827" />
    <path d="M 2.48463 -19.38902 L 2.48463 -20.95099" />
    <path d="M -3.24135 -20.62449 L -3.24135 -15.99249" />
    <path d="M -11.68353 -18.98407 L -11.68353 -14.35207" />
    <path d="M -3.24135 -20.62449 L -11.68353 -18.98407 L -19.67751 -20.9168 L -19.67751 -16.2848" />
    <path d="M -2.79315 -24.19764 L -2.79315 -19.56564" />
    <path d="M -2.79315 -24.19764 L -3.24135 -20.62449" />
    <path d="M -10.78712 -26.13037 L -2.79315 -24.19764" />
    <path d="M -19.22931 -24.48995 L -10.78712 -26.13037" />
    <path d="M -19.67751 -20.9168 L -19.22931 -24.48995" />
    <path d="M -7.91059 -20.13128 A 7.25 2.72992 0 0 1 -18.48533 -22.55722 A 7.25 2.72992 0 0 1 -3.98533 -22.55722 A 7.25 2.72992 0 0 1 -7.91059 -20.13128 Z" />
    <path d="M -7.39723 -20.24122 A 7.25 2.72992 180 0 0 -15.07342 -20.24122" />
    <path d="M -9.93335 19.88032 A 17.5 6.58946 180 1 0 25.06665 19.88032" />
    <path d="M -0.45858 -9.13541 A 17.5 6.58946 360 0 1 16.11462 -9.02958 L -9.832 -3.98783 L -9.832 7.12897" />
    <path d="M 16.11462 -9.02958 L 16.11462 -0.85175" />
    <path d="M 24.9653 7.12897 A 17.5 6.58946 360 0 1 25.06665 7.83711 L 25.06665 19.88032" />
    <path d="M 25.06665 7.83711 A 17.5 6.58946 360 0 1 24.9653 8.54526" />
    <path d="M 24.9653 -2.57155 L 24.9653 8.54526" />
    <path d="M 24.9653 -2.57155 A 17.5 6.58946 0 0 1 -0.98132 2.4702 L 24.9653 -2.57155 Z" />
    <path d="M -0.98132 2.4702 L -0.98132 13.587 A 17.5 6.58946 360 0 1 -9.93335 7.83711 L -9.93335 19.88032" />
    <path d="M -9.93335 7.83711 A 17.5 6.58946 360 0 1 -9.832 7.12897" />
    <path d="M -9.832 -3.98783 A 17.5 6.58946 360 0 1 -0.45858 -9.13541" />
    <path d="M -0.98132 5.40918 L -9.832 7.12897" />
    <path d="M -5.36156 9.07806 A 3 1.12962 180 0 0 -6.98581 10.0819 A 3 1.12962 180 0 0 -0.98581 10.0819 A 3 1.12962 180 0 0 -5.36156 9.07806 Z" />
    <path d="M -27.13533 1.52918 L -27.13533 -17.92522" />
    <path d="M 4.66467 -9.77791 L 4.66467 -17.92522" />
</svg>